<?xml version="1.0" encoding="UTF-8" standalone="no"?>
<svg
   xmlns:dc="http://purl.org/dc/elements/1.1/"
   xmlns:cc="http://creativecommons.org/ns#"
   xmlns:rdf="http://www.w3.org/1999/02/22-rdf-syntax-ns#"
   xmlns:svg="http://www.w3.org/2000/svg"
   xmlns="http://www.w3.org/2000/svg"
   xmlns:sodipodi="http://sodipodi.sourceforge.net/DTD/sodipodi-0.dtd"
   xmlns:inkscape="http://www.inkscape.org/namespaces/inkscape"
   version="1.1"
   id="svg2"
   xml:space="preserve"
   width="688.79999"
   height="688.79999"
   viewBox="0 0 688.79999 688.79999"
   sodipodi:docname="LOGO Signet Plain RGB.eps"><metadata
     id="metadata8"><rdf:RDF><cc:Work
         rdf:about=""><dc:format>image/svg+xml</dc:format><dc:type
           rdf:resource="http://purl.org/dc/dcmitype/StillImage" /></cc:Work></rdf:RDF></metadata><defs
     id="defs6" /><sodipodi:namedview
     pagecolor="#ffffff"
     bordercolor="#666666"
     borderopacity="1"
     objecttolerance="10"
     gridtolerance="10"
     guidetolerance="10"
     inkscape:pageopacity="0"
     inkscape:pageshadow="2"
     inkscape:window-width="640"
     inkscape:window-height="480"
     id="namedview4" /><g
     id="g10"
     inkscape:groupmode="layer"
     inkscape:label="ink_ext_XXXXXX"
     transform="matrix(1.3333333,0,0,-1.3333333,0,688.8)"><g
       id="g12"
       transform="scale(0.1)"><path
         d="m 2750.27,339.09 c -1239.26,0 -2243.887,1004.62 -2243.887,2243.89 0,1239.26 1004.627,2243.89 2243.887,2243.89 1239.26,0 2243.88,-1004.63 2243.88,-2243.89 0,-1239.27 -1004.62,-2243.89 -2243.88,-2243.89 z M 2582.98,5165.96 C 1156.44,5165.96 0,4009.52 0,2582.98 0,1156.44 1156.44,0 2582.98,0 c 1426.54,0 2582.98,1156.44 2582.98,2582.98 0,1426.54 -1156.44,2582.98 -2582.98,2582.98"
         style="fill:#28788f;fill-opacity:1;fill-rule:nonzero;stroke:none"
         id="path14" /><path
         d="m 1938.39,3342.58 h -6.35 V 1723.65 c 0,-398.47 297.78,-727.388 682.94,-776.369 V 3342.58 h -676.59"
         style="fill:#28788f;fill-opacity:1;fill-rule:nonzero;stroke:none"
         id="path16" /><path
         d="m 2814.44,2659.64 h 682.94 v 682.93 h -682.94 v -682.93"
         style="fill:#28788f;fill-opacity:1;fill-rule:nonzero;stroke:none"
         id="path18" /><path
         d="m 3002.98,947.281 h -188.53 v 676.639 h 676.64 v -188.53 c 0,-269.58 -218.54,-488.109 -488.11,-488.109"
         style="fill:#28788f;fill-opacity:1;fill-rule:nonzero;stroke:none"
         id="path20" /><path
         d="M 2426.47,4218.68 H 2615 v -676.64 h -676.64 v 188.53 c 0,269.58 218.54,488.11 488.11,488.11"
         style="fill:#28788f;fill-opacity:1;fill-rule:nonzero;stroke:none"
         id="path22" /></g></g></svg>
